<mxfile host="app.diagrams.net" modified="2023-06-22T14:54:27.898Z" agent="Mozilla/5.0 (Windows NT 10.0; Win64; x64) AppleWebKit/537.36 (KHTML, like Gecko) Chrome/114.0.0.0 Safari/537.36" version="21.3.7" etag="AjlJyC_x31Fr7SGH7evA" type="github">
  <diagram name="PÃ¡gina-1" id="_KIo-miWdFbM8Qu53oFt">
    <mxGraphModel>
      <root>
        <mxCell id="0" />
        <mxCell id="1" parent="0" />
      </root>
    </mxGraphModel>
  </diagram>
</mxfile>
